<?xml version="1.0" standalone="no"?>
<!DOCTYPE svg PUBLIC "-//W3C//DTD SVG 20010904//EN"
 "http://www.w3.org/TR/2001/REC-SVG-20010904/DTD/svg10.dtd">
<svg version="1.0" xmlns="http://www.w3.org/2000/svg"
 width="920.000000pt" height="909.000000pt" viewBox="0 0 920.000000 909.000000"
 preserveAspectRatio="xMidYMid meet">

<g transform="translate(0.000000,909.000000) scale(0.100000,-0.100000)"
fill="#000000" stroke="none">
<path d="M0 4545 l0 -4545 4600 0 4600 0 0 4545 0 4545 -4600 0 -4600 0 0
-4545z m7268 3959 c397 -81 708 -356 836 -739 59 -174 56 -12 56 -3177 l0
-2908 435 0 434 0 36 -31 c51 -45 60 -85 46 -216 -55 -530 -411 -946 -929
-1086 l-117 -32 -2365 0 -2365 0 -98 27 c-202 56 -379 160 -519 306 -124 129
-200 254 -254 415 -56 169 -53 2 -54 3025 l0 2792 -915 0 -914 0 -36 31 c-55
48 -58 73 -53 390 5 264 7 291 31 380 80 302 254 537 512 691 106 64 266 121
395 141 14 3 1316 5 2893 6 2580 1 2876 -1 2945 -15z"/>
<path d="M1431 8230 c-305 -64 -552 -297 -632 -596 -17 -63 -22 -119 -26 -276
l-6 -198 823 0 822 0 -4 188 c-6 225 -21 298 -88 437 -100 207 -271 353 -495
425 -55 18 -99 23 -210 26 -77 2 -160 -1 -184 -6z"/>
<path d="M2391 8173 c136 -144 220 -307 276 -530 16 -63 17 -295 23 -3228 5
-3011 6 -3163 24 -3220 95 -318 350 -545 666 -595 352 -55 710 134 861 455 57
122 71 189 78 370 7 170 11 187 62 229 l31 26 1734 0 1734 0 -2 2943 -3 2942
-23 75 c-86 280 -280 478 -557 572 l-70 23 -2449 3 -2449 2 64 -67z m1809
-361 c256 -103 345 -419 179 -635 -81 -106 -190 -157 -351 -165 l-108 -5 0
-76 c0 -90 -18 -135 -69 -168 -63 -43 -148 -21 -191 49 -19 32 -20 52 -20 478
0 426 1 446 20 478 11 18 34 41 52 52 31 19 46 21 233 18 179 -3 206 -6 255
-26z m877 8 c18 -10 39 -29 47 -42 8 -13 78 -182 155 -376 l141 -352 0 -106
c0 -89 -3 -112 -20 -139 -64 -104 -224 -74 -254 48 l-6 27 -131 0 c-115 0
-130 -2 -135 -17 -25 -80 -56 -111 -122 -120 -50 -7 -108 20 -133 61 -16 25
-19 51 -19 141 l0 110 139 349 c77 191 147 359 156 372 23 36 74 64 115 64 19
0 49 -9 67 -20z m821 0 c18 -11 41 -34 52 -52 19 -32 20 -52 20 -478 0 -426
-1 -446 -20 -478 -43 -70 -128 -92 -191 -49 -70 46 -69 42 -69 527 0 394 2
438 18 470 36 73 123 100 190 60z m741 5 c198 -47 363 -212 410 -409 15 -63
15 -189 0 -252 -35 -148 -142 -286 -275 -356 -95 -50 -175 -68 -312 -68 -92 0
-120 4 -151 20 -71 36 -71 33 -71 530 0 493 -1 488 68 528 32 19 52 22 152 22
68 0 141 -6 179 -15z m490 -1373 c69 -37 71 -50 71 -397 0 -290 -1 -312 -20
-342 -10 -18 -34 -40 -52 -50 -31 -17 -120 -18 -1850 -18 l-1817 0 -27 21
c-15 11 -37 33 -48 48 -20 26 -21 40 -21 339 0 347 2 357 68 397 31 20 65 20
1847 20 1739 0 1817 -1 1849 -18z m-9 -1090 c100 -50 106 -192 9 -244 -32 -17
-110 -18 -1849 -18 -1782 0 -1816 0 -1847 20 -62 37 -84 127 -46 190 9 16 35
39 58 50 40 20 61 20 1840 20 1694 0 1802 -1 1835 -18z m-2320 -550 c96 -48
96 -192 0 -243 -33 -18 -70 -19 -680 -19 -610 0 -647 1 -680 19 -96 51 -96
195 0 243 32 17 86 18 680 18 594 0 648 -1 680 -18z m1616 3 c422 -73 761
-374 879 -780 147 -508 -93 -1049 -570 -1285 -155 -76 -259 -101 -445 -107
-131 -4 -171 -2 -256 16 -403 83 -724 379 -838 774 -75 258 -51 523 68 772 88
183 209 324 371 435 233 158 520 221 791 175z m-1609 -555 c45 -27 66 -64 66
-114 0 -56 -28 -102 -79 -126 -40 -20 -59 -20 -687 -18 -634 3 -646 3 -673 24
-48 35 -67 69 -67 117 1 52 24 92 68 118 28 18 65 19 685 19 632 0 656 -1 687
-20z m-1 -544 c42 -25 67 -71 67 -122 0 -50 -21 -87 -66 -114 -31 -19 -55 -20
-685 -20 -713 0 -688 -2 -730 57 -52 73 -13 187 72 212 18 6 302 9 671 8 608
-2 642 -3 671 -21z m2450 -1362 c100 -48 108 -179 15 -241 l-34 -23 -1059 0
c-899 0 -1064 2 -1093 14 -75 32 -101 144 -48 207 52 61 -8 58 1136 59 948 0
1052 -2 1083 -16z"/>
<path d="M3920 7425 l0 -135 68 0 c136 0 192 40 192 137 0 93 -54 133 -180
133 l-80 0 0 -135z"/>
<path d="M4977 7242 c-15 -37 -27 -71 -27 -75 0 -4 27 -7 60 -7 33 0 60 3 60
7 0 16 -54 143 -60 143 -4 0 -19 -30 -33 -68z"/>
<path d="M6520 7290 c0 -255 1 -270 18 -270 38 0 111 32 152 67 153 132 103
392 -88 457 -89 31 -82 51 -82 -254z"/>
<path d="M3650 6060 l0 -130 1635 0 1635 0 0 130 0 130 -1635 0 -1635 0 0
-130z"/>
<path d="M6108 4540 c-177 -32 -334 -115 -454 -241 -153 -162 -225 -336 -227
-554 -1 -143 21 -242 83 -370 101 -209 273 -355 500 -427 65 -20 95 -23 230
-23 135 0 165 3 230 23 277 87 488 303 561 578 16 60 22 110 22 204 1 153 -16
225 -83 366 -75 156 -206 287 -366 367 -107 55 -202 78 -334 82 -63 2 -136 0
-162 -5z m207 -280 c29 -18 65 -72 65 -97 0 -5 23 -19 50 -30 43 -18 54 -29
71 -68 47 -106 -20 -194 -148 -196 -43 0 -51 -3 -33 -8 73 -22 132 -75 171
-151 50 -99 20 -242 -66 -318 -34 -30 -43 -45 -48 -81 -7 -53 -32 -90 -78
-114 -70 -37 -167 5 -190 83 -9 29 -18 40 -38 45 -45 11 -72 35 -92 81 -44 98
26 193 143 194 l43 1 -42 20 c-173 84 -210 312 -72 447 18 18 36 32 41 32 4 0
8 16 8 36 0 44 32 105 68 127 37 23 107 22 147 -3z"/>
<path d="M4600 1351 c0 -70 -25 -204 -55 -290 -55 -161 -134 -291 -249 -409
l-61 -62 1900 3 1900 3 77 21 c277 79 485 243 613 486 47 89 80 180 90 252 l7
45 -2111 0 -2111 0 0 -49z"/>
</g>
</svg>
